/* XPM */
static char *dummy[]={
"14 14 8 1",
" 	c None",
".	c #32CD32",
"+	c #00FF00",
"@	c #2F4F4F",
"#	c #2E8B57",
"$	c #FFFFFF",
"%	c #BFBFBF",
"&	c #98FB98",
"              ",
"              ",
"     +++.     ",
"   &++&++.+   ",
"   +$&$&+..   ",
"  +&&$&++..#  ",
"  ++&+++..##  ",
"  .+++...##@  ",
"  ......##@#  ",
"   ...###@@   ",
"   #####@@#   ",
"     #@@#     ",
"              ",
"              "};
