/* XPM */
static char *dummy[]={
"14 14 3 1",
" 	c None",
".	c #000000",
"+	c #C0C0C0",
"++++++++++++++",
"++++++++++++++",
"++++++++++++++",
"++++++++++++++",
"++++..++..++++",
"++++..++..++++",
"++++..++..++++",
"++++..++..++++",
"++++..++..++++",
"++++..++..++++",
"++++++++++++++",
"++++++++++++++",
"++++++++++++++",
"++++++++++++++"};
