/* XPM */
static char *dummy[]={
"14 14 6 1",
" 	c None",
".	c #FF6347",
"+	c #FFFF00",
"@	c #FFD700",
"#	c #FFFACD",
"$	c #FFA500",
"              ",
"              ",
"     +++@     ",
"   ++++++@@   ",
"   ++##++@@   ",
"  ++##+++@@$  ",
"  ++++++@@$$  ",
"  @+++@@@$$$  ",
"  @@@@@@$$$.  ",
"   @@$$$$$.   ",
"   $$$$$...   ",
"     $...     ",
"              ",
"              "};
